<svg id="Layer" enable-background="new 0 0 64 64" height="512" viewBox="0 0 64 64" width="512" xmlns="http://www.w3.org/2000/svg"><path d="m42 8h-20c-7.72 0-14 6.28-14 14v20c0 7.72 6.28 14 14 14h20c7.72 0 14-6.28 14-14v-20c0-7.72-6.28-14-14-14zm-12 36c0-1.104-.896-2-2-2h-4v-4h4c1.104 0 2-.896 2-2v-8c0-3.309 2.691-6 6-6h8v4h-6c-2.206 0-4 1.794-4 4v6c0 1.104.896 2 2 2h7.664l-1.165 4h-6.499c-1.104 0-2 .896-2 2v8h-4zm22-2c0 5.514-4.486 10-10 10h-4v-6h6c.89 0 1.672-.587 1.92-1.441l1.922-6.596c.304-.898.166-1.89-.376-2.672-.561-.808-1.483-1.291-2.466-1.291h-7v-4h8c1.104 0 2-.896 2-2v-8c0-1.104-.896-2-2-2h-10c-5.514 0-10 4.486-10 10v6h-4c-1.104 0-2 .896-2 2v8c0 1.104.896 2 2 2h4v6h-4c-5.514 0-10-4.486-10-10v-20c0-5.514 4.486-10 10-10h20c5.514 0 10 4.486 10 10z"/></svg>